<svg width="48" height="43" viewBox="0 0 48 43" fill="none" xmlns="http://www.w3.org/2000/svg">
<path d="M28.0434 2.49092C27.8427 2.19099 27.7782 1.9883 27.7782 1.9883L27.8739 1.90311C27.8739 1.90311 28.0599 1.97795 28.3849 2.10693C28.5383 2.1662 28.7262 2.23895 28.9415 2.32101C29.1535 2.39538 29.3843 2.48209 29.6317 2.54022C29.7536 2.57678 29.8776 2.61316 30.0058 2.62712C30.0704 2.63538 30.1319 2.65257 30.1958 2.66397C30.2592 2.66815 30.3228 2.67014 30.3859 2.67793C30.6415 2.71117 30.8764 2.6843 31.134 2.67128C31.2534 2.62873 31.3862 2.61677 31.5162 2.56263C31.6353 2.49453 31.791 2.45502 31.9015 2.36774C31.9601 2.3288 32.0209 2.28824 32.0861 2.24816C32.1538 2.21131 32.2258 2.18215 32.2977 2.10684L32.7528 1.73681C32.7571 1.73111 32.7262 1.7747 32.741 1.75438L32.7442 1.75124L32.7519 1.74459L32.7669 1.73215L32.7969 1.70622L32.8569 1.65427L32.9763 1.55293L33.2016 1.34607C33.3432 1.20474 33.5214 1.09457 33.6643 0.958375C33.8049 0.817429 33.9939 0.73119 34.1443 0.594518C34.3052 0.471808 34.4932 0.37987 34.6746 0.260864C35.0556 0.0872466 35.501 -0.041637 35.8997 0.0124998C35.9997 0.0228523 36.0968 0.0379536 36.1923 0.0550495C36.2847 0.0799334 36.3715 0.110706 36.4574 0.141858C36.6334 0.198085 36.785 0.27853 36.9278 0.358026C37.2131 0.517682 37.4399 0.702602 37.6212 0.881444C37.8013 1.06076 37.9368 1.23542 38.0343 1.38767C38.1365 1.53669 38.1956 1.66833 38.2372 1.75827C38.2716 1.85078 38.2897 1.90064 38.2897 1.90064L38.1942 1.98688C38.1942 1.98688 37.9893 1.91983 37.6746 1.79246C37.5213 1.73329 37.3353 1.65902 37.1219 1.57582C36.9158 1.49366 36.6891 1.40325 36.4497 1.3248C36.3305 1.28215 36.2072 1.23799 36.0826 1.20883C36.0194 1.19382 35.9572 1.16979 35.8936 1.15222C35.8303 1.13978 35.7671 1.12411 35.7035 1.10388C35.4464 1.02277 35.1808 0.942799 34.8519 0.909557C34.7009 0.928837 34.5205 0.922569 34.3633 0.986013C34.2122 1.06029 34.0386 1.11746 33.9172 1.24948C33.7949 1.37675 33.6553 1.48806 33.5696 1.65019L33.4449 1.89181L33.3876 2.01347L33.3598 2.07378L33.3461 2.10494L33.3392 2.1189L33.336 2.12621L33.3338 2.13086C33.3462 2.1132 33.3146 2.15898 33.3167 2.15632L33.0714 2.68021C32.9909 2.84918 32.8062 3.03989 32.6554 3.20771C32.5024 3.39064 32.2975 3.49568 32.115 3.6391C31.9241 3.76903 31.6909 3.84387 31.4775 3.9379C31.0232 4.06355 30.5487 4.08606 30.1493 3.98263C29.9454 3.93904 29.7578 3.88176 29.5924 3.79866C29.4193 3.7279 29.2701 3.63967 29.1294 3.55438C28.8499 3.37516 28.6283 3.18539 28.4532 2.99933C28.2743 2.81935 28.1418 2.64165 28.0434 2.49092ZM47.6512 32.2106V43H0.910156V32.2106H4.09402V20.0906L13.0662 13.9953V20.0906L22.037 13.9953V20.0906L31.0097 13.9953V25.976H34.1054L35.7866 4.78291H40.9179L42.3895 25.976H45.8418V32.2115H47.6511V32.2106H47.6512ZM15.5622 27.5515H8.50821V33.8568H15.5622V27.5515ZM27.7171 27.5515H20.663V33.8568H27.7171V27.5515ZM40.0248 27.5515H32.9709V33.8568H40.0248V27.5515Z" fill="#80A2C5"/>
</svg>
